# Blender v3.0.1 OBJ File: 'garage.blend'
# www.blender.org
o Garage-Wall_Cube.010
v 8.000000 2.850000 8.000000
v 8.000000 -2.850000 8.000000
v -8.000000 2.850000 8.000000
v -8.000000 -2.850000 8.000000
v 8.000000 0.503533 4.056571
v 8.000000 -0.217744 -3.031660
v 8.000000 1.655038 8.000000
v 8.000000 1.276616 8.000000
v 8.000000 1.462243 4.056571
v 8.000000 1.276616 4.056571
v 8.000000 1.655038 -5.447649
v 8.000000 1.655038 -3.336229
v 8.000000 1.655038 -3.031660
v 8.000000 1.276616 -3.031660
v 8.000000 1.655038 -5.743977
v 8.000000 1.276616 -5.743977
v 8.000000 2.597444 -8.000000
v 8.000000 2.487682 8.000000
v 8.000000 2.597444 4.056571
v 8.000000 2.597444 -5.447649
v 8.000000 2.597444 -3.336229
v 8.000000 2.597444 -3.031660
v 8.000000 2.597444 -5.743977
v 8.000000 2.597444 -6.914844
v 8.000000 2.597444 -6.574372
v 8.000000 -0.575752 -8.000000
v 8.000000 -0.867984 -8.000000
v 8.000000 -0.575752 -6.914844
v 8.000000 -0.867984 -6.914844
v 8.000000 -0.280891 -5.743977
v 8.000000 -0.516418 -5.743977
v 8.000000 -0.280891 -6.574372
v 8.000000 -0.516418 -6.574372
v 8.000000 0.000000 4.429654
v 8.000000 0.000000 6.155666
v 8.000000 0.489924 6.489554
v 8.000000 0.489924 7.509336
v 8.000000 1.276616 4.429654
v 8.000000 1.276616 6.155666
v 8.000000 1.276616 6.489554
v 8.000000 1.276616 7.509336
v 8.000000 1.462243 4.429654
v 8.000000 1.462243 6.155666
v 8.000000 1.462243 6.489554
v 8.000000 1.655038 7.509336
v 8.000000 2.597444 4.429654
v 8.000000 2.597444 6.155666
v 8.000000 2.597444 6.489554
v 8.000000 2.597444 7.509336
v 8.000000 -0.217744 2.319621
v 8.000000 0.503533 2.657345
v 8.000000 1.276616 2.319621
v 8.000000 1.276616 2.657345
v 8.000000 1.655038 2.319621
v 8.000000 1.655038 2.657345
v 8.000000 2.597444 2.319621
v 8.000000 2.597444 2.657345
v 8.000000 -0.499588 -3.031660
v 8.000000 -0.499588 2.319620
v 8.000000 0.187667 4.056571
v 8.000000 0.187667 2.657345
v 8.000000 0.221689 6.489554
v 8.000000 0.221689 7.509336
v 8.000000 -2.499158 8.000000
v 8.000000 -2.542728 -8.000000
v 8.000000 -2.542728 -6.914844
v 8.000000 -2.541733 -6.574372
v 8.000000 -2.539307 -5.743977
v 8.000000 -2.531384 -3.031660
v 8.000000 -2.515752 2.319620
v 8.000000 -2.514765 2.657345
v 8.000000 -2.510677 4.056571
v 8.000000 -2.509588 4.429653
v 8.000000 -2.504546 6.155666
v 8.000000 -2.503571 6.489554
v 8.000000 -2.500592 7.509336
v -8.000000 -2.850000 -7.931781
v -8.000000 2.850000 -7.931781
v -0.025000 -2.850000 -8.000000
v -4.025000 -2.850000 -8.000000
v -3.975000 -2.850000 -8.000000
v -3.975000 2.850000 -8.000000
v -4.025000 2.850000 -8.000000
v -0.025000 2.850000 -8.000000
v -3.975000 2.850000 -7.931781
v -3.975000 -2.850000 -7.931781
v -4.025000 -2.850000 -7.931781
v -4.025000 2.850000 -7.931781
v -0.025000 -2.850000 -7.931781
v -0.025000 2.850000 -7.931781
v 0.000000 2.850000 8.000000
v -8.000000 -2.850000 -7.708333
v -8.000000 -2.850000 -5.772672
v -8.000000 -2.850000 -5.464674
v -8.000000 -2.850000 -3.763125
v -8.000000 -2.850000 -3.471458
v -8.000000 -2.850000 -0.909797
v -8.000000 -2.850000 -0.634461
v -8.000000 -2.850000 6.222222
v -8.000000 -2.850000 1.047239
v -8.000000 -2.850000 1.455130
v -8.000000 -2.850000 2.091653
v -8.000000 -2.850000 2.499162
v -8.000000 -2.850000 5.845956
v -8.000000 -0.671356 8.000000
v -8.000000 -0.334835 8.000000
v -8.000000 0.981538 8.000000
v -8.000000 1.357253 8.000000
v -8.000000 1.357253 6.222222
v -8.000000 0.981538 6.222222
v -8.000000 -0.334835 6.222222
v -8.000000 -0.671356 6.222222
v -8.000000 1.357253 2.499162
v -8.000000 0.981538 2.499162
v -8.000000 -0.334835 2.499162
v -8.000000 -0.671356 2.499162
v -8.000000 1.357253 5.845956
v -8.000000 0.981538 5.845956
v -8.000000 -0.334835 5.845956
v -8.000000 -0.671356 5.845956
v -8.000000 2.003956 2.091653
v -8.000000 1.713162 2.091653
v -8.000000 -0.374029 2.091653
v -8.000000 -0.632161 2.091653
v -8.000000 2.003956 1.455130
v -8.000000 1.713162 1.455130
v -8.000000 -0.374029 1.455130
v -8.000000 -0.632161 1.455130
v -8.000000 2.093162 -0.909797
v -8.000000 -0.351201 -0.909797
v -8.000000 2.093162 -3.471458
v -8.000000 -0.351201 -3.471458
v -8.000000 2.653783 -0.909797
v -8.000000 2.653783 -3.471458
v -8.000000 2.093162 -2.022257
v -8.000000 2.093162 -2.331781
v -8.000000 2.653783 -2.022257
v -8.000000 2.653783 -2.331781
v -8.000000 0.666844 -5.772672
v -8.000000 0.666844 -7.708333
v -8.000000 0.904327 -5.772672
v -8.000000 0.904327 -7.708333
v -8.000000 0.000000 -3.763125
v -8.000000 0.000000 -5.464674
v -8.000000 0.261172 -3.763125
v -8.000000 0.261172 -5.464674
v -8.000000 1.077273 -0.634461
v -8.000000 1.077273 1.047239
v -8.000000 1.363636 -0.634461
v -8.000000 1.363636 1.047239
v -8.000000 -0.722727 -0.634461
v -8.000000 -0.722727 1.047239
v -8.000000 -0.422727 -0.634461
v -8.000000 -0.422727 1.047239
v -8.000000 2.593553 8.000000
v -8.000000 2.651152 -3.763125
v -8.000000 2.634825 -5.464674
v -8.000000 2.632047 -5.772672
v -8.000000 2.615572 -7.708333
v -8.000000 2.605571 6.222222
v -8.000000 2.608114 5.845956
v -8.000000 2.630738 2.499162
v -8.000000 2.633493 2.091653
v -8.000000 2.637796 1.455130
v -8.000000 2.640553 1.047239
v -8.000000 2.651922 -0.634461
v -7.944986 -0.351201 -0.909797
v -7.944986 -0.351201 -3.471458
v -7.954987 2.093162 -0.909797
v -7.954987 2.093162 -3.471458
v -7.954987 2.093162 -2.331781
v -7.954987 2.093162 -2.022257
v -5.444666 -2.850000 8.000000
v -5.427108 2.000250 8.000000
v 4.489182 2.000250 8.000000
v 4.489183 -2.850000 8.000000
vt 2.658820 3.895733
vt 2.658820 2.998497
vt 2.918279 3.484004
vt -5.220373 7.480826
vt -5.657566 7.480826
vt -5.657566 7.187059
vt 2.952583 4.555450
vt 2.658817 3.895734
vt 2.952583 3.895734
vt -4.267159 2.998503
vt -3.928099 3.987653
vt -4.267159 3.987653
vt -3.928099 6.033426
vt -4.267159 6.555477
vt -4.267159 6.033426
vt 2.918279 4.556208
vt 2.658820 5.186785
vt 2.658820 4.555453
vt 0.644181 5.997273
vt 1.183476 6.395220
vt 0.644181 6.395220
vt -4.267159 5.140263
vt -4.267159 5.082399
vt -3.948526 5.082399
vt 6.222193 4.780369
vt 6.340156 4.780369
vt 6.340156 6.452394
vt 6.810851 4.780369
vt 7.439329 6.452394
vt 6.805976 6.452394
vt 7.599792 3.939239
vt 7.162600 4.780369
vt 7.162600 3.937966
vt -3.948526 3.988585
vt -4.267159 4.837175
vt -4.267159 3.987655
vt -3.913290 5.494130
vt -4.267156 6.033426
vt -4.267156 5.494130
vt 1.183476 5.216554
vt 1.183476 5.997273
vt 4.661136 6.119360
vt 4.682450 4.341277
vt 4.682450 6.119360
vt 4.686441 4.780369
vt 5.928426 2.999393
vt 5.928426 4.780323
vt 5.928426 4.780369
vt 7.162600 2.999393
vt 7.162600 4.780323
vt 7.822287 -3.549892
vt 7.843602 -5.327975
vt 7.843602 -3.549892
vt 7.889185 4.780369
vt 7.867870 6.557176
vt 7.867870 4.780369
vt -0.589991 7.600773
vt -0.056178 6.995967
vt -0.051039 7.600773
vt 4.307023 7.147916
vt 3.627407 6.102198
vt 4.307023 6.102198
vt -5.246928 6.828111
vt -5.657564 5.782393
vt -5.246928 5.782393
vt 5.773566 6.561345
vt 5.218091 7.240963
vt 5.218091 6.561345
vt 2.488451 7.053016
vt 2.899086 7.608490
vt 2.488451 7.608490
vt 4.682032 2.998345
vt 4.483148 3.690187
vt 4.483148 2.998345
vt 4.682032 3.690190
vt 4.483148 4.341278
vt 4.483148 3.690190
vt 6.533229 6.452394
vt 7.312715 7.252794
vt 6.533229 7.252794
vt 0.591763 7.352057
vt 0.416880 6.995960
vt 0.591763 6.995960
vt 3.802289 7.495503
vt 3.627405 7.147912
vt 3.802289 7.147912
vt 6.533232 6.452394
vt 5.928426 7.549453
vt 5.928426 6.452394
vt 1.175834 6.395220
vt 0.644181 7.284262
vt 0.644181 6.395220
vt -0.051039 6.995960
vt 0.416878 7.521412
vt -0.051039 7.521412
vt 7.688050 3.274377
vt 7.162598 3.937970
vt 7.162598 3.274377
vt 4.686441 6.561347
vt 5.218094 7.301795
vt 4.686441 7.306889
vt -1.955994 -2.000748
vt -1.955994 -2.000748
vt -1.955994 -2.000748
vt -1.955994 -2.000748
vt 7.312716 7.007864
vt 7.711044 7.533316
vt 7.312716 7.533316
vt 7.360322 3.274373
vt 7.163941 3.075489
vt 7.360322 3.075489
vt 2.885706 7.053016
vt 2.495506 6.007298
vt 2.885706 6.007298
vt 7.702124 7.007862
vt 7.316465 6.452387
vt 7.702124 6.452387
vt 2.869821 5.542882
vt 2.883883 5.186785
vt 2.883883 5.542882
vt -3.928092 3.987651
vt -3.945279 4.788051
vt -3.945279 3.987651
vt 2.869821 5.987185
vt 2.883883 5.639592
vt 2.883883 5.987185
vt -5.405989 2.194591
vt -5.671492 2.998503
vt -5.671492 0.498884
vt 2.918279 2.998497
vt 2.918279 3.601966
vt 2.918279 3.895733
vt -5.657566 7.069098
vt -5.220373 7.126961
vt -5.657566 6.828112
vt -5.220373 7.069098
vt -5.220373 6.828112
vt 2.658817 4.555450
vt -3.928099 2.998503
vt -3.928099 6.555477
vt 2.918279 5.186785
vt -4.267159 4.837172
vt -3.948526 4.837172
vt -3.948526 5.200361
vt -3.948526 5.494128
vt -4.267159 5.494128
vt 6.805976 4.780369
vt 6.805976 6.452394
vt 6.222193 6.452394
vt 5.928426 6.452394
vt 5.928426 4.780369
vt 7.439329 4.780369
vt 7.599792 4.780369
vt -3.948526 4.837175
vt -3.913290 6.033426
vt 0.644181 5.214984
vt 4.661136 4.341277
vt 4.686441 2.999443
vt 5.928426 2.999443
vt 7.822287 -5.327975
vt 7.889185 6.557176
vt -0.589991 6.995967
vt 3.627407 7.147916
vt -5.657564 6.828111
vt 5.773566 7.240963
vt 2.899086 7.053016
vt 4.682032 3.690187
vt 4.682032 4.341278
vt 7.312715 6.452394
vt 0.416880 7.352057
vt 3.627405 7.495503
vt 6.533232 7.549453
vt 1.175834 7.284262
vt 0.416878 6.995960
vt 7.688050 3.937970
vt 5.218094 6.561347
vt 7.714590 7.007864
vt 7.162600 3.274373
vt 2.488450 7.053016
vt 7.312717 7.007862
vt 2.869821 5.186785
vt -3.928092 4.788051
vt 2.869821 5.639592
vt -4.000146 -2.000749
vt -3.890526 -2.000749
vt -3.890526 -0.903790
vt -5.179889 -2.000734
vt -5.405989 -0.903768
vt -5.558288 -2.000727
vt -5.298128 -2.000734
vt -3.890526 2.200063
vt -3.890526 2.998481
vt -5.671492 -2.000727
vn -1.0000 0.0000 0.0000
vn 1.0000 0.0000 0.0000
vn 0.0000 0.0000 1.0000
vn 0.0000 1.0000 0.0000
vn 0.0000 -1.0000 0.0000
vn 0.0000 0.0000 -1.0000
s off
f 25/1/1 32/2/1 16/3/1
f 19/4/1 57/5/1 55/6/1
f 12/7/1 20/8/1 11/9/1
f 26/10/1 24/11/1 17/12/1
f 66/13/1 27/14/1 65/15/1
f 68/16/1 33/17/1 67/18/1
f 34/19/1 39/20/1 38/21/1
f 44/22/1 40/23/1 41/24/1
f 13/25/1 14/26/1 52/27/1
f 70/28/1 58/29/1 69/30/1
f 72/31/1 61/32/1 71/33/1
f 76/34/1 62/35/1 75/36/1
f 42/37/1 47/38/1 46/39/1
f 34/19/1 74/40/1 35/41/1
f 88/42/2 80/43/2 83/44/2
f 87/45/3 78/46/3 77/47/3
f 89/48/3 85/49/3 86/50/3
f 90/51/2 79/52/2 84/53/2
f 86/54/1 82/55/1 81/56/1
f 141/57/2 159/58/2 158/59/2
f 103/60/2 120/61/2 104/62/2
f 115/63/2 118/64/2 119/65/2
f 99/66/2 105/67/2 4/68/2
f 111/69/2 107/70/2 106/71/2
f 101/72/2 124/73/2 102/74/2
f 127/75/2 122/76/2 123/77/2
f 96/78/2 130/79/2 97/80/2
f 131/81/2 138/82/2 136/83/2
f 135/84/2 133/85/2 129/86/2
f 92/87/2 139/88/2 93/89/2
f 94/90/2 143/91/2 95/92/2
f 153/93/2 148/94/2 154/95/2
f 98/96/2 152/97/2 100/98/2
f 145/99/2 157/100/2 156/101/2
f 133/102/3 138/103/3 134/104/3
f 137/105/3 138/103/3 133/102/3
f 149/106/2 165/107/2 150/108/2
f 125/109/2 163/110/2 121/111/2
f 113/112/2 161/113/2 117/114/2
f 109/115/2 155/116/2 108/117/2
f 171/118/4 131/119/4 136/120/4
f 168/121/5 130/122/5 132/123/5
f 169/124/4 135/125/4 129/126/4
f 174/127/6 3/128/6 91/129/6
f 30/130/1 16/3/1 32/2/1
f 16/3/1 15/131/1 25/1/1
f 15/131/1 23/132/1 25/1/1
f 55/6/1 53/133/1 9/134/1
f 53/133/1 51/135/1 10/136/1
f 9/134/1 53/133/1 10/136/1
f 51/135/1 5/137/1 10/136/1
f 9/134/1 19/4/1 55/6/1
f 12/7/1 21/138/1 20/8/1
f 26/10/1 28/139/1 24/11/1
f 66/13/1 29/140/1 27/14/1
f 68/16/1 31/141/1 33/17/1
f 34/19/1 35/41/1 39/20/1
f 40/23/1 36/142/1 37/143/1
f 41/24/1 45/144/1 44/22/1
f 45/144/1 49/145/1 48/146/1
f 44/22/1 45/144/1 48/146/1
f 40/23/1 37/143/1 41/24/1
f 14/26/1 6/147/1 50/148/1
f 52/27/1 54/149/1 13/25/1
f 54/149/1 56/150/1 13/25/1
f 14/26/1 50/148/1 52/27/1
f 56/150/1 22/151/1 13/25/1
f 70/28/1 59/152/1 58/29/1
f 72/31/1 60/153/1 61/32/1
f 76/34/1 63/154/1 62/35/1
f 42/37/1 43/155/1 47/38/1
f 34/19/1 73/156/1 74/40/1
f 88/42/2 87/157/2 80/43/2
f 87/45/3 88/158/3 78/46/3
f 89/48/3 90/159/3 85/49/3
f 90/51/2 89/160/2 79/52/2
f 86/54/1 85/161/1 82/55/1
f 141/57/2 142/162/2 159/58/2
f 103/60/2 116/163/2 120/61/2
f 115/63/2 114/164/2 118/64/2
f 99/66/2 112/165/2 105/67/2
f 111/69/2 110/166/2 107/70/2
f 101/72/2 128/167/2 124/73/2
f 127/75/2 126/168/2 122/76/2
f 96/78/2 132/169/2 130/79/2
f 131/81/2 134/170/2 138/82/2
f 135/84/2 137/171/2 133/85/2
f 92/87/2 140/172/2 139/88/2
f 94/90/2 144/173/2 143/91/2
f 153/93/2 147/174/2 148/94/2
f 98/96/2 151/175/2 152/97/2
f 145/99/2 146/176/2 157/100/2
f 149/106/2 166/177/2 165/107/2
f 125/109/2 164/178/2 163/110/2
f 113/112/2 162/179/2 161/113/2
f 109/115/2 160/180/2 155/116/2
f 171/118/4 170/181/4 131/119/4
f 168/121/5 167/182/5 130/122/5
f 169/124/4 172/183/4 135/125/4
f 64/184/6 2/185/6 176/186/6
f 64/184/6 176/186/6 8/187/6
f 176/186/6 175/188/6 8/187/6
f 18/189/6 7/190/6 175/188/6
f 7/190/6 8/187/6 175/188/6
f 174/127/6 173/191/6 4/192/6
f 174/127/6 4/192/6 3/128/6
f 18/189/6 175/188/6 1/193/6
f 175/188/6 174/127/6 91/129/6
f 91/129/6 1/193/6 175/188/6
