# Blender v3.0.1 OBJ File: 'garage.blend'
# www.blender.org
o GarageSideDoor_Cube.012
v 8.000000 2.850000 -8.000000
v 8.000000 -2.850000 -8.000000
v -8.000000 -2.850000 -8.000000
v 7.964681 -1.084305 -3.533961
v 7.964681 -1.084305 -3.766684
v 7.964681 -0.535813 -3.766684
v 7.964681 -0.535813 -3.533961
v 7.964680 -2.850000 -3.336230
v 7.964680 -2.850000 -5.447649
v 7.964680 -2.538442 -5.447649
v 7.964680 -2.532274 -3.336230
v 7.964680 1.276616 -5.447649
v 7.964680 1.276616 -3.336229
v 8.000000 2.487682 -7.931781
v 8.000000 2.850000 -7.931781
v -8.000000 -2.850000 -7.931781
v -8.000000 2.850000 -7.931781
v 8.000000 -2.850000 -7.931781
v 8.000000 -2.542728 -7.931781
v 3.975000 -2.850000 -8.000000
v 4.025000 -2.850000 -8.000000
v -0.025000 -2.850000 -8.000000
v 0.025000 -2.850000 -8.000000
v -4.025000 -2.850000 -8.000000
v -3.975000 -2.850000 -8.000000
v -3.975000 2.850000 -8.000000
v -4.025000 2.850000 -8.000000
v 0.025000 2.850000 -8.000000
v -0.025000 2.850000 -8.000000
v 4.025000 2.850000 -8.000000
v 3.975000 2.850000 -8.000000
v 8.000000 -0.575752 -7.931781
v 8.000000 -0.867984 -7.931781
v -3.975000 2.850000 -7.931781
v -3.975000 -2.850000 -7.931781
v -4.025000 -2.850000 -7.931781
v -4.025000 2.850000 -7.931781
v 0.025000 2.850000 -7.931781
v 0.025000 -2.850000 -7.931781
v -0.025000 -2.850000 -7.931781
v -0.025000 2.850000 -7.931781
v 4.025000 2.850000 -7.931781
v 4.025000 -2.850000 -7.931781
v 3.975000 -2.850000 -7.931781
v 3.975000 2.850000 -7.931781
v -8.000000 2.850000 -8.000000
vt -0.589993 6.995960
vt 0.644181 5.214984
vt 0.644181 6.995914
vt 7.935126 2.433068
vt 7.913811 3.667231
vt 7.913811 2.433068
vt 3.492908 6.652597
vt 3.627405 6.102194
vt 3.565629 6.652597
vt 2.967689 6.199311
vt 2.967689 6.102194
vt 3.627405 6.201236
vt 3.627405 7.388542
vt 3.492908 6.823572
vt 3.565629 6.823572
vt 7.886238 -5.327975
vt 7.864923 -3.551169
vt 7.864923 -5.327975
vt 7.913811 2.433068
vt 7.935126 1.198905
vt 7.935126 2.433068
vt 4.686441 5.850775
vt 4.686441 4.893623
vt 5.928426 4.780369
vt 7.825241 6.558452
vt 7.846556 4.780369
vt 7.846556 6.558452
vt -3.929336 6.555484
vt -3.950651 7.797461
vt -3.950651 6.555484
vt 4.661136 7.361323
vt 4.682450 6.119360
vt 4.682450 7.361323
vt 7.867870 4.780369
vt 7.846556 6.557176
vt 7.846556 4.780369
vt -3.913293 6.033426
vt -3.891978 4.791449
vt -3.891978 6.033426
vt 7.889185 6.022332
vt 7.910500 4.780369
vt 7.910500 6.022332
vt 7.916021 -2.315744
vt 7.937336 -3.549896
vt 7.937336 -2.315744
vt 7.937336 -7.000000
vt 7.916021 -5.765848
vt 7.916021 -7.000000
vt 7.870317 0.400447
vt 7.849002 2.177253
vt 7.849002 0.400447
vt -0.589993 5.215034
vt 7.935126 3.667231
vt 2.967689 7.388542
vt 7.886238 -3.551169
vt 7.913811 1.198905
vt 5.928426 6.561299
vt 4.686441 6.561345
vt 4.686441 6.465340
vt 4.686441 5.942077
vt 4.686441 4.780419
vt 7.825241 4.780369
vt -3.929336 7.797461
vt 4.661136 6.119360
vt 7.867870 6.557176
vt -3.913293 4.791449
vt 7.889185 4.780369
vt 7.916021 -3.549896
vt 7.937336 -5.765848
vt 7.870317 2.177253
vn 0.0000 0.0000 1.0000
vn 0.0000 1.0000 0.0000
vn -1.0000 -0.0000 0.0000
vn 1.0000 0.0000 0.0000
vn 0.0000 -1.0000 0.0000
s off
f 44/1/1 38/2/1 39/3/1
f 34/4/2 29/5/2 26/6/2
f 5/7/3 8/8/3 4/9/3
f 5/7/3 10/10/3 9/11/3
f 4/9/3 8/8/3 11/12/3
f 13/13/3 6/14/3 7/15/3
f 6/14/3 10/10/3 5/7/3
f 11/12/3 7/15/3 4/9/3
f 16/16/3 46/17/3 3/18/3
f 38/19/2 31/20/2 28/21/2
f 32/22/1 14/23/1 42/24/1
f 45/25/4 20/26/4 31/27/4
f 17/28/2 27/29/2 46/30/2
f 18/31/5 21/32/5 2/33/5
f 39/34/3 28/35/3 23/36/3
f 42/37/2 1/38/2 30/39/2
f 36/40/5 3/41/5 24/42/5
f 40/43/5 25/44/5 22/45/5
f 44/46/5 23/47/5 20/48/5
f 43/49/3 30/50/3 21/51/3
f 44/1/1 45/52/1 38/2/1
f 34/4/2 41/53/2 29/5/2
f 5/7/3 9/11/3 8/8/3
f 13/13/3 12/54/3 6/14/3
f 6/14/3 12/54/3 10/10/3
f 11/12/3 13/13/3 7/15/3
f 16/16/3 17/55/3 46/17/3
f 38/19/2 45/56/2 31/20/2
f 42/24/1 43/57/1 32/22/1
f 43/57/1 18/58/1 19/59/1
f 19/59/1 33/60/1 43/57/1
f 33/60/1 32/22/1 43/57/1
f 14/23/1 15/61/1 42/24/1
f 45/25/4 44/62/4 20/26/4
f 17/28/2 37/63/2 27/29/2
f 18/31/5 43/64/5 21/32/5
f 39/34/3 38/65/3 28/35/3
f 42/37/2 15/66/2 1/38/2
f 36/40/5 16/67/5 3/41/5
f 40/43/5 35/68/5 25/44/5
f 44/46/5 39/69/5 23/47/5
f 43/49/3 42/70/3 30/50/3
