# Blender v3.0.1 OBJ File: 'garage.blend'
# www.blender.org
o Counter-wood_Cube.004
v -7.916852 -0.937930 -1.098779
v -2.532200 -0.937930 -1.098779
v -7.916852 -0.937930 -1.361580
v -2.532200 -0.937930 -1.361580
v -2.790329 -0.937930 -1.098779
v -2.790329 -0.937930 -1.361580
v -2.532200 -0.937930 -2.730728
v -2.790329 -0.937930 -2.730728
v -2.532200 -0.937930 -2.470079
v -2.790329 -0.937930 -2.470079
v -2.790329 -0.937930 -2.716904
v -5.916852 -0.937930 -2.716904
v -5.916852 -1.074891 -2.483903
v -5.916852 -0.937930 -2.483903
v -5.916852 -1.074891 -2.470079
v -5.916852 -1.074891 -2.730728
v -2.790329 -1.074891 -2.730728
v -2.790329 -1.074891 -2.470079
v -5.916852 -0.937930 -1.115701
v -7.916852 -0.937930 -1.115701
v -5.916852 -0.937930 -1.344658
v -7.916852 -0.937930 -1.344658
v -2.790329 -0.937930 -1.115701
v -2.790329 -0.937930 -1.344658
v -7.916852 -1.074891 -1.344658
v -7.916852 -1.074891 -1.115701
v -5.916852 -1.074891 -1.115701
v -5.916852 -1.074891 -1.344658
v -2.790329 -1.074891 -1.115701
v -2.790329 -1.074891 -1.344658
v -2.790329 -0.937930 -2.483903
v -5.916852 -1.074891 -2.716904
v -2.790329 -1.074891 -2.716904
v -2.790329 -1.074891 -2.483903
v -2.532200 -2.862931 -1.361580
v -2.532200 -2.862931 -1.098779
v -2.790329 -2.862931 -1.098779
v -2.790329 -2.862931 -1.361580
v -2.790329 -2.862931 -2.730728
v -2.532200 -2.862931 -2.730728
v -2.532200 -2.862931 -2.470079
v -2.790329 -2.862931 -2.470079
vt -0.018862 2.467225
vt 0.060192 1.877677
vt 0.060192 2.467225
vt -0.257568 2.467225
vt -0.177742 1.877677
vt -0.177742 2.467225
vt 2.458055 -0.255301
vt 2.378229 0.702223
vt 2.378229 -0.255301
vt 2.378229 1.659747
vt 2.420174 2.272264
vt 2.378229 2.272264
vt 2.316977 0.357216
vt 2.246857 -0.255301
vt 2.316977 -0.255301
vt 2.246857 1.314740
vt 2.246857 0.357216
vt 2.021156 0.807345
vt 2.063102 1.419862
vt 2.021156 1.419862
vt 2.063102 2.377386
vt 2.021156 2.377386
vt 2.378229 0.702223
vt 2.420174 1.659747
vt 1.834310 1.568440
vt 1.834310 1.493138
vt 1.834310 1.487955
vt 2.443164 -1.480335
vt 2.485110 -0.522811
vt 2.443164 -0.522811
vt 2.458055 -0.255302
vt 2.500000 0.702222
vt 2.458055 0.702222
vt 1.792365 1.327645
vt 1.871419 1.408129
vt 1.792365 1.408129
vt 1.792365 1.408130
vt 1.871419 1.487956
vt 1.792365 1.487956
vt 0.460150 2.303213
vt 0.540634 1.713665
vt 0.540634 2.303213
vt -0.177742 2.467225
vt -0.097916 1.877677
vt -0.097916 2.467225
vt 0.060192 2.467225
vt 0.139246 1.877677
vt 0.139246 2.467225
vt -0.097916 2.467225
vt -0.018862 1.877677
vt -0.018862 2.467225
vt 0.139246 2.467225
vt 0.218300 1.877677
vt 0.218300 2.467225
vt -0.338053 2.467225
vt -0.257568 1.877677
vt -0.257568 2.467225
vt -0.018862 1.877677
vt -0.257568 1.877677
vt 2.458055 0.702223
vt 2.316977 1.314740
vt 2.063102 0.807345
vt 2.420174 0.702223
vt 1.834310 1.563257
vt 1.792365 1.563257
vt 1.792365 1.493138
vt 2.485110 -1.480335
vt 2.500000 -0.255302
vt 1.871419 1.327645
vt 1.871419 1.408130
vt 0.460150 1.713665
vt -0.177742 1.877677
vt 0.060192 1.877677
vt -0.097916 1.877677
vt 0.139246 1.877677
vt -0.338053 1.877677
vn 0.0000 0.0000 -1.0000
vn 1.0000 0.0000 0.0000
vn 0.0000 -1.0000 0.0000
vn 0.0000 0.0000 1.0000
vn 0.0000 1.0000 0.0000
vn -1.0000 0.0000 0.0000
s 1
f 4/1/1 38/2/1 6/3/1
f 9/4/2 40/5/2 7/6/2
f 16/7/3 18/8/3 15/9/3
f 21/10/1 25/11/1 22/12/1
f 28/13/3 26/14/3 25/15/3
f 28/13/3 29/16/3 27/17/3
f 20/18/4 27/19/4 19/20/4
f 19/20/4 29/21/4 23/22/4
f 24/23/1 28/24/1 21/10/1
f 3/25/5 20/26/5 1/27/5
f 14/28/4 34/29/4 31/30/4
f 11/31/1 32/32/1 12/33/1
f 38/34/3 36/35/3 37/36/3
f 39/37/3 41/38/3 42/39/3
f 2/40/2 35/41/2 4/42/2
f 8/43/6 42/44/6 10/45/6
f 10/46/4 41/47/4 9/48/4
f 7/49/1 39/50/1 8/51/1
f 5/52/4 36/53/4 2/54/4
f 6/55/6 37/56/6 5/57/6
f 4/1/1 35/58/1 38/2/1
f 9/4/2 41/59/2 40/5/2
f 16/7/3 17/60/3 18/8/3
f 21/10/1 28/24/1 25/11/1
f 28/13/3 27/17/3 26/14/3
f 28/13/3 30/61/3 29/16/3
f 20/18/4 26/62/4 27/19/4
f 19/20/4 27/19/4 29/21/4
f 24/23/1 30/63/1 28/24/1
f 22/64/6 25/65/6 26/66/6
f 22/64/6 26/66/6 20/26/6
f 3/25/4 22/64/4 20/26/4
f 14/28/4 13/67/4 34/29/4
f 11/31/1 33/68/1 32/32/1
f 38/34/3 35/69/3 36/35/3
f 39/37/3 40/70/3 41/38/3
f 2/40/2 36/71/2 35/41/2
f 8/43/6 39/72/6 42/44/6
f 10/46/4 42/73/4 41/47/4
f 7/49/1 40/74/1 39/50/1
f 5/52/4 37/75/4 36/53/4
f 6/55/6 38/76/6 37/56/6
