# Blender v3.0.1 OBJ File: 'garage.blend'
# www.blender.org
o Counter-top_Cube.003
v -7.916852 -0.937930 -5.921130
v -7.916852 -0.737930 -5.921130
v -7.916852 -0.937930 -7.921130
v -7.916852 -0.737930 -7.921130
v -5.916852 -0.737930 -5.921130
v -5.916852 -0.937930 -7.921130
v -5.916852 -0.737930 -7.921130
v -0.957517 -0.737930 -7.921130
v -0.957517 -0.937930 -7.921130
v -0.957517 -0.737930 -5.921130
v -7.916852 -0.937930 -2.814855
v -7.916852 -0.737930 -2.814855
v -5.916852 -0.737930 -2.814855
v -7.916852 -0.937930 -1.020846
v -7.916852 -0.737930 -1.020846
v -5.916852 -0.737930 -1.020846
v -5.916852 -0.937930 -1.020846
v -2.447208 -0.737930 -2.814855
v -2.447208 -0.937930 -2.814855
v -2.447208 -0.737930 -1.020846
v -2.447208 -0.937930 -1.020846
v -2.532200 -0.937930 -1.020846
v -2.532200 -0.737930 -1.020846
v -2.532200 -0.737930 -2.814855
v -2.532200 -0.937930 -2.814855
v -7.916852 -0.937930 -1.098779
v -7.916852 -0.737930 -1.098779
v -5.916852 -0.737930 -1.098779
v -5.916852 -0.937930 -1.098779
v -2.447208 -0.737930 -1.098779
v -2.447208 -0.937930 -1.098779
v -2.532200 -0.937930 -1.098779
v -2.532200 -0.737930 -1.098779
v -7.916852 -0.737930 -1.361580
v -5.916852 -0.737930 -1.361580
v -5.916852 -0.937930 -1.361580
v -2.447208 -0.737930 -1.361580
v -2.447208 -0.937930 -1.361580
v -2.532200 -0.737930 -1.361580
v -7.916852 -0.937930 -1.361580
v -2.532200 -0.937930 -1.361580
v -2.790329 -0.737930 -1.020846
v -2.790329 -0.737930 -2.814855
v -2.790329 -0.937930 -2.814855
v -2.790329 -0.937930 -1.020846
v -2.790329 -0.737930 -1.098779
v -2.790329 -0.937930 -1.098779
v -2.790329 -0.737930 -1.361580
v -2.790329 -0.937930 -1.361580
v -7.916852 -0.737930 -2.730728
v -5.916852 -0.737930 -2.730728
v -5.916852 -0.937930 -2.730728
v -2.447208 -0.737930 -2.730728
v -2.447208 -0.937930 -2.730728
v -2.532200 -0.737930 -2.730728
v -7.916852 -0.937930 -2.730728
v -2.532200 -0.937930 -2.730728
v -2.790329 -0.737930 -2.730728
v -2.790329 -0.937930 -2.730728
v -7.916852 -0.937930 -2.470079
v -2.532200 -0.937930 -2.470079
v -2.790329 -0.937930 -2.470079
v -7.916852 -0.737930 -2.470079
v -5.916852 -0.737930 -2.470079
v -5.916852 -0.937930 -2.470079
v -2.447208 -0.737930 -2.470079
v -2.447208 -0.937930 -2.470079
v -2.532200 -0.737930 -2.470079
v -2.790329 -0.737930 -2.470079
v -7.916852 -0.937930 -1.915830
v -2.532200 -0.937930 -1.915830
v -2.790329 -0.937930 -1.915830
v -7.916852 -0.737930 -1.915830
v -5.916852 -0.737930 -1.915830
v -5.916852 -0.937930 -1.915830
v -2.447208 -0.737930 -1.915830
v -2.447208 -0.937930 -1.915830
v -2.532200 -0.737930 -1.915830
v -2.790329 -0.737930 -1.915830
v -2.790329 -0.937930 -2.716904
v -5.916852 -0.937930 -2.716904
v -5.916852 -0.937930 -2.483903
v -5.916852 -0.937930 -1.115701
v -7.916852 -0.937930 -1.115701
v -5.916852 -0.937930 -1.344658
v -7.916852 -0.937930 -1.344658
v -2.790329 -0.937930 -1.115701
v -2.790329 -0.937930 -1.344658
v -2.790329 -0.937930 -2.483903
v -3.335658 -0.737930 -5.921130
v -3.538710 -0.737930 -5.921130
v -3.538710 -0.937930 -7.921130
v -3.335658 -0.937930 -7.921130
v -3.335658 -0.737930 -7.921130
v -3.538710 -0.737930 -7.921130
v -3.335658 -0.937930 -5.921130
v -0.957517 -0.937930 -5.921130
v -3.538710 -0.937930 -5.921130
v -5.916852 -0.737930 -4.462411
v -5.916852 -0.737930 -4.273573
v -7.916852 -0.937930 -4.462411
v -7.916852 -0.937930 -4.273573
v -7.916852 -0.737930 -4.273573
v -7.916852 -0.737930 -4.462411
v -5.916852 -0.937930 -4.462411
v -5.916852 -0.937930 -5.921130
v -5.916852 -0.937930 -2.814855
v -5.916852 -0.937930 -4.273573
vt 2.185605 0.357216
vt 2.246857 -0.255301
vt 2.246857 0.357216
vt 2.124353 1.876055
vt 2.185605 1.263539
vt 2.185605 1.876055
vt 2.124353 1.597857
vt 2.063102 2.326183
vt 2.063102 1.597857
vt 2.420174 1.148968
vt 2.481426 0.702223
vt 2.481426 1.148968
vt 1.815334 1.585496
vt 1.202817 2.198013
vt 1.202817 1.585496
vt -1.500000 -1.480335
vt -0.887483 -0.867818
vt -1.500000 -0.867818
vt 0.540635 2.326183
vt 0.601887 1.713666
vt 0.601887 2.326183
vt -0.887483 -0.077305
vt -1.500000 0.651020
vt -1.500000 -0.077305
vt 2.124353 0.473025
vt 2.185605 -0.255300
vt 2.185605 0.473025
vt 2.246857 1.834101
vt 2.185605 1.857969
vt 2.185605 1.834101
vt 2.246857 0.861794
vt 2.185605 1.308539
vt 2.185605 0.861794
vt -0.382905 -1.480335
vt 0.063840 -0.867818
vt -0.382905 -0.867818
vt 2.378229 0.807307
vt 2.316977 1.419825
vt 2.316977 0.807307
vt 0.589403 -1.480335
vt 0.613270 -0.867818
vt 0.589403 -0.867818
vt 2.316977 -0.229271
vt 2.378229 -0.255300
vt 2.378229 -0.229271
vt -0.863617 1.263537
vt -0.887484 0.651020
vt -0.863617 0.651020
vt 2.124354 1.899920
vt 2.185605 1.876053
vt 2.185605 1.899920
vt 0.613270 0.168760
vt 0.589403 0.194790
vt 0.589403 0.168760
vt 2.381913 -1.454305
vt 2.443164 -1.480335
vt 2.443164 -1.454305
vt -0.338053 2.300115
vt -0.363817 2.326144
vt -0.363817 2.300115
vt -0.338053 2.221061
vt -0.363817 2.221061
vt 2.381913 -1.375252
vt 2.443164 -1.375252
vt 0.613270 0.089706
vt 0.589403 0.089706
vt 2.316977 -0.150217
vt 2.378229 -0.150217
vt 0.508918 0.168760
vt 0.508918 0.089706
vt -0.863617 2.221061
vt -0.887484 2.300115
vt -0.887484 2.221061
vt -0.863617 2.300115
vt -0.887484 2.326144
vt 0.508918 0.194790
vt 2.124354 1.980406
vt 2.185605 1.980406
vt 0.508918 -1.480335
vt 0.508918 -0.867818
vt 2.246857 1.753616
vt 2.185605 1.753616
vt 2.246857 1.583873
vt 2.185605 1.583873
vt 0.339174 -1.480335
vt 0.339174 -0.867818
vt -0.613388 1.263537
vt -0.783131 0.651020
vt -0.613388 0.651020
vt 2.124354 2.150149
vt 2.185605 2.150149
vt 0.339174 0.194789
vt 0.339174 0.168760
vt 0.339174 0.089706
vt -0.783131 2.300115
vt -0.863617 2.326144
vt -0.887484 1.263537
vt 2.381913 -0.417728
vt 2.443164 -0.417728
vt -0.338053 1.263537
vt -0.363817 1.263537
vt 0.089605 -0.867818
vt 0.063840 0.089706
vt 0.089605 0.089706
vt 0.063840 0.168760
vt 0.089605 0.168760
vt 0.063840 0.194789
vt 2.124354 2.425484
vt 2.185605 2.399719
vt 2.185605 2.425484
vt 0.063840 -1.480335
vt 2.246857 1.308539
vt 2.185605 1.334303
vt -0.443644 2.326144
vt -0.443644 2.300115
vt -0.613388 2.326144
vt -0.613388 2.300115
vt -0.443644 2.221061
vt -0.613388 2.221061
vt -0.443644 1.263537
vt 0.169431 -0.867818
vt 0.169431 0.089706
vt 0.169431 0.168760
vt 0.089605 0.194789
vt 2.124354 2.399719
vt 2.185605 2.319893
vt 0.089605 -1.480335
vt 2.246857 1.334303
vt 2.185605 1.414129
vt -0.783131 2.221061
vt -0.783131 1.263537
vt -0.783131 2.326144
vt 0.169431 0.194789
vt 2.124354 2.319893
vt 0.169431 -1.480335
vt 2.246857 1.414129
vt 0.606453 0.731505
vt 0.606453 0.656203
vt 0.606453 0.726322
vt -0.858433 1.263537
vt -0.858433 2.221061
vt -0.788313 0.651020
vt -0.788313 1.263537
vt 0.606453 0.730847
vt 0.606453 0.655255
vt 0.606453 0.726612
vt -0.368052 1.263537
vt -0.439409 2.221061
vt 2.124353 1.263539
vt 2.185605 0.535212
vt 2.124353 0.535212
vt -1.500000 -0.139492
vt -0.887483 -0.139492
vt 2.124353 0.807345
vt 2.063102 1.535671
vt 2.063102 0.807345
vt 2.124353 1.535671
vt -0.887483 -1.480335
vt -0.440738 -0.867818
vt -0.440738 -1.480335
vt 2.185605 0.803961
vt 2.246857 0.803961
vt 2.420174 1.653547
vt 2.481426 1.206802
vt 2.481426 1.653547
vt 2.420174 1.206802
vt 2.185605 -0.255301
vt 2.124353 2.326183
vt 2.420174 0.702223
vt 1.815334 2.198013
vt 0.540635 1.713666
vt -0.887483 0.651020
vt 2.124353 -0.255300
vt 2.246857 1.857969
vt 2.378229 1.419825
vt 0.613270 -1.480335
vt 2.316977 -0.255300
vt 2.124354 1.876053
vt 0.613270 0.194790
vt 2.381913 -1.480335
vt -0.338053 2.326144
vt 0.606453 0.651020
vt -0.858433 0.651020
vt -0.788313 2.221061
vt 0.606453 0.651020
vt -0.368052 2.221061
vt -0.439409 1.263537
vn -1.0000 0.0000 0.0000
vn 0.0000 0.0000 -1.0000
vn 0.0000 0.0000 1.0000
vn 1.0000 0.0000 0.0000
vn 0.0000 -1.0000 0.0000
vn 0.0000 1.0000 0.0000
s off
f 2/1/1 3/2/1 1/3/1
f 4/4/2 6/5/2 3/6/2
f 96/7/3 10/8/3 90/9/3
f 100/10/4 107/11/4 108/12/4
f 6/13/5 1/14/5 3/15/5
f 4/16/6 5/17/6 7/18/6
f 8/19/4 97/20/4 9/21/4
f 90/22/6 8/23/6 94/24/6
f 94/25/2 9/26/2 93/27/2
f 26/28/1 15/29/1 27/30/1
f 102/31/1 12/32/1 103/33/1
f 103/34/6 13/35/6 100/36/6
f 16/37/3 14/38/3 17/39/3
f 27/40/6 16/41/6 28/42/6
f 22/43/3 20/44/3 23/45/3
f 29/46/5 14/47/5 26/48/5
f 30/49/4 21/50/4 31/51/4
f 23/52/6 30/53/6 33/54/6
f 24/55/2 19/56/2 25/57/2
f 25/58/5 54/59/5 57/60/5
f 44/61/5 57/60/5 59/62/5
f 43/63/2 25/57/2 44/64/2
f 42/65/6 33/54/6 46/66/6
f 45/67/3 23/45/3 42/68/3
f 46/66/6 39/69/6 48/70/6
f 47/71/5 22/72/5 45/73/5
f 32/74/5 21/75/5 22/72/5
f 33/54/6 37/76/6 39/69/6
f 37/77/4 31/51/4 38/78/4
f 34/79/6 28/42/6 35/80/6
f 40/81/1 27/30/1 34/82/1
f 70/83/1 34/82/1 73/84/1
f 73/85/6 35/80/6 74/86/6
f 75/87/5 40/88/5 70/89/5
f 76/90/4 38/78/4 77/91/4
f 39/69/6 76/92/6 78/93/6
f 48/70/6 78/93/6 79/94/6
f 41/95/5 31/96/5 32/74/5
f 35/80/6 79/94/6 74/86/6
f 29/46/5 45/73/5 17/97/5
f 28/42/6 48/70/6 35/80/6
f 17/39/3 42/68/3 16/37/3
f 16/41/6 46/66/6 28/42/6
f 13/98/2 44/64/2 107/99/2
f 107/100/5 59/62/5 52/101/5
f 51/102/6 43/103/6 13/35/6
f 58/104/6 24/105/6 43/103/6
f 55/106/6 18/107/6 24/105/6
f 18/108/4 54/109/4 19/110/4
f 12/111/6 51/102/6 13/35/6
f 11/112/1 50/113/1 12/32/1
f 57/60/5 67/114/5 61/115/5
f 61/115/5 77/116/5 71/117/5
f 62/118/5 71/117/5 72/119/5
f 65/120/5 72/119/5 75/87/5
f 64/121/6 58/104/6 51/102/6
f 69/122/6 55/106/6 58/104/6
f 68/123/6 53/124/6 55/106/6
f 53/125/4 67/126/4 54/109/4
f 50/127/6 64/121/6 51/102/6
f 56/128/1 63/129/1 50/113/1
f 75/87/5 49/130/5 36/131/5
f 72/119/5 41/95/5 49/130/5
f 71/117/5 38/132/5 41/95/5
f 74/86/6 69/122/6 64/121/6
f 79/94/6 68/123/6 69/122/6
f 78/93/6 66/133/6 68/123/6
f 66/134/4 77/91/4 67/126/4
f 63/135/6 74/86/6 64/121/6
f 60/136/1 73/84/1 63/129/1
f 49/137/3 87/138/3 88/139/3
f 26/48/5 83/140/5 29/46/5
f 29/46/5 87/141/5 47/71/5
f 36/131/5 86/142/5 40/88/5
f 49/130/5 85/143/5 36/131/5
f 59/144/6 89/145/6 80/146/6
f 59/62/5 81/147/5 52/101/5
f 65/120/5 89/148/5 62/118/5
f 7/149/2 92/150/2 6/5/2
f 95/151/2 93/27/2 92/150/2
f 5/17/6 95/152/6 7/18/6
f 91/153/6 94/24/6 95/152/6
f 106/154/3 91/155/3 5/156/3
f 98/157/3 90/9/3 91/155/3
f 2/158/6 99/159/6 5/17/6
f 104/160/6 100/36/6 99/159/6
f 1/3/1 104/161/1 2/1/1
f 101/162/1 103/33/1 104/161/1
f 5/163/4 105/164/4 106/165/4
f 99/166/4 108/12/4 105/164/4
f 2/1/1 4/167/1 3/2/1
f 4/4/2 7/149/2 6/5/2
f 96/7/3 97/168/3 10/8/3
f 100/10/4 13/169/4 107/11/4
f 6/13/5 106/170/5 1/14/5
f 4/16/6 2/158/6 5/17/6
f 8/19/4 10/171/4 97/20/4
f 90/22/6 10/172/6 8/23/6
f 94/25/2 8/173/2 9/26/2
f 26/28/1 14/174/1 15/29/1
f 102/31/1 11/112/1 12/32/1
f 103/34/6 12/111/6 13/35/6
f 16/37/3 15/175/3 14/38/3
f 27/40/6 15/176/6 16/41/6
f 22/43/3 21/177/3 20/44/3
f 29/46/5 17/97/5 14/47/5
f 30/49/4 20/178/4 21/50/4
f 23/52/6 20/179/6 30/53/6
f 24/55/2 18/180/2 19/56/2
f 25/58/5 19/181/5 54/59/5
f 44/61/5 25/58/5 57/60/5
f 43/63/2 24/55/2 25/57/2
f 42/65/6 23/52/6 33/54/6
f 45/67/3 22/43/3 23/45/3
f 46/66/6 33/54/6 39/69/6
f 47/71/5 32/74/5 22/72/5
f 32/74/5 31/96/5 21/75/5
f 33/54/6 30/53/6 37/76/6
f 37/77/4 30/49/4 31/51/4
f 34/79/6 27/40/6 28/42/6
f 40/81/1 26/28/1 27/30/1
f 70/83/1 40/81/1 34/82/1
f 73/85/6 34/79/6 35/80/6
f 75/87/5 36/131/5 40/88/5
f 76/90/4 37/77/4 38/78/4
f 39/69/6 37/76/6 76/92/6
f 48/70/6 39/69/6 78/93/6
f 41/95/5 38/132/5 31/96/5
f 35/80/6 48/70/6 79/94/6
f 29/46/5 47/71/5 45/73/5
f 28/42/6 46/66/6 48/70/6
f 17/39/3 45/67/3 42/68/3
f 16/41/6 42/65/6 46/66/6
f 13/98/2 43/63/2 44/64/2
f 107/100/5 44/61/5 59/62/5
f 51/102/6 58/104/6 43/103/6
f 58/104/6 55/106/6 24/105/6
f 55/106/6 53/124/6 18/107/6
f 18/108/4 53/125/4 54/109/4
f 12/111/6 50/127/6 51/102/6
f 11/112/1 56/128/1 50/113/1
f 57/60/5 54/59/5 67/114/5
f 61/115/5 67/114/5 77/116/5
f 62/118/5 61/115/5 71/117/5
f 65/120/5 62/118/5 72/119/5
f 64/121/6 69/122/6 58/104/6
f 69/122/6 68/123/6 55/106/6
f 68/123/6 66/133/6 53/124/6
f 53/125/4 66/134/4 67/126/4
f 50/127/6 63/135/6 64/121/6
f 56/128/1 60/136/1 63/129/1
f 75/87/5 72/119/5 49/130/5
f 72/119/5 71/117/5 41/95/5
f 71/117/5 77/116/5 38/132/5
f 74/86/6 79/94/6 69/122/6
f 79/94/6 78/93/6 68/123/6
f 78/93/6 76/92/6 66/133/6
f 66/134/4 76/90/4 77/91/4
f 63/135/6 73/85/6 74/86/6
f 60/136/1 70/83/1 73/84/1
f 49/137/5 47/182/5 87/138/5
f 26/48/5 84/183/5 83/140/5
f 29/46/5 83/140/5 87/141/5
f 36/131/5 85/143/5 86/142/5
f 49/130/5 88/184/5 85/143/5
f 59/144/5 62/185/5 89/145/5
f 59/62/5 80/186/5 81/147/5
f 65/120/5 82/187/5 89/148/5
f 7/149/2 95/151/2 92/150/2
f 95/151/2 94/25/2 93/27/2
f 5/17/6 91/153/6 95/152/6
f 91/153/6 90/22/6 94/24/6
f 106/154/3 98/157/3 91/155/3
f 98/157/3 96/7/3 90/9/3
f 2/158/6 104/160/6 99/159/6
f 104/160/6 103/34/6 100/36/6
f 1/3/1 101/162/1 104/161/1
f 101/162/1 102/31/1 103/33/1
f 5/163/4 99/166/4 105/164/4
f 99/166/4 100/10/4 108/12/4
